REM DIRINDEX 1\2,1\3
REM DIRNAME cjc039,folder01,folder02
TITLE ""
FILE "1821-1840.mp3" MP3
  TRACK 01 AUDIO
    TITLE "0:"
    INDEX 01 00:00:00
  TRACK 02 AUDIO
    TITLE "2:cjc039_2641"
    INDEX 01 00:00:25
  TRACK 03 AUDIO
    TITLE "0:"
    INDEX 01 00:01:56
  TRACK 04 AUDIO
    TITLE "3:cjc039_2642"
    INDEX 01 00:02:34
  TRACK 05 AUDIO
    TITLE "0:"
    INDEX 01 00:05:71
  TRACK 06 AUDIO
    TITLE "2:cjc039_2643"
    INDEX 01 00:07:43
  TRACK 07 AUDIO
    TITLE "0:"
    INDEX 01 00:08:73
  TRACK 08 AUDIO
    TITLE "3:cjc039_2644"
    INDEX 01 00:09:42
  TRACK 09 AUDIO
    TITLE "0:"
    INDEX 01 00:13:00
  TRACK 10 AUDIO
    TITLE "2:cjc039_2645"
    INDEX 01 00:14:45
  TRACK 11 AUDIO
    TITLE "0:"
    INDEX 01 00:15:48
  TRACK 12 AUDIO
    TITLE "3:cjc039_2646"
    INDEX 01 00:16:22
  TRACK 13 AUDIO
    TITLE "0:"
    INDEX 01 00:18:54
  TRACK 14 AUDIO
    TITLE "2:cjc039_2647"
    INDEX 01 00:20:30
  TRACK 15 AUDIO
    TITLE "0:"
    INDEX 01 00:21:49
  TRACK 16 AUDIO
    TITLE "3:cjc039_2648"
    INDEX 01 00:22:21
  TRACK 17 AUDIO
    TITLE "0:"
    INDEX 01 00:26:09
  TRACK 18 AUDIO
    TITLE "2:cjc039_2649"
    INDEX 01 00:27:57
  TRACK 19 AUDIO
    TITLE "0:"
    INDEX 01 00:29:01
  TRACK 20 AUDIO
    TITLE "3:cjc039_2650"
    INDEX 01 00:29:50
  TRACK 21 AUDIO
    TITLE "0:"
    INDEX 01 00:33:30
  TRACK 22 AUDIO
    TITLE "2:cjc039_2651"
    INDEX 01 00:35:04
  TRACK 23 AUDIO
    TITLE "0:"
    INDEX 01 00:36:38
  TRACK 24 AUDIO
    TITLE "3:cjc039_2652"
    INDEX 01 00:37:12
  TRACK 25 AUDIO
    TITLE "0:"
    INDEX 01 00:40:64
  TRACK 26 AUDIO
    TITLE "2:cjc039_2653"
    INDEX 01 00:42:41
  TRACK 27 AUDIO
    TITLE "0:"
    INDEX 01 00:43:50
  TRACK 28 AUDIO
    TITLE "3:cjc039_2654"
    INDEX 01 00:44:24
  TRACK 29 AUDIO
    TITLE "0:"
    INDEX 01 00:47:28
  TRACK 30 AUDIO
    TITLE "2:cjc039_2655"
    INDEX 01 00:49:00
  TRACK 31 AUDIO
    TITLE "0:"
    INDEX 01 00:50:19
  TRACK 32 AUDIO
    TITLE "3:cjc039_2656"
    INDEX 01 00:50:64
  TRACK 33 AUDIO
    TITLE "0:"
    INDEX 01 00:55:08
  TRACK 34 AUDIO
    TITLE "2:cjc039_2657"
    INDEX 01 00:56:59
  TRACK 35 AUDIO
    TITLE "0:"
    INDEX 01 00:57:70
  TRACK 36 AUDIO
    TITLE "3:cjc039_2658"
    INDEX 01 00:58:44
  TRACK 37 AUDIO
    TITLE "0:"
    INDEX 01 01:01:05
  TRACK 38 AUDIO
    TITLE "2:cjc039_2659"
    INDEX 01 01:02:55
  TRACK 39 AUDIO
    TITLE "0:"
    INDEX 01 01:04:01
  TRACK 40 AUDIO
    TITLE "3:cjc039_2660"
    INDEX 01 01:04:54
  TRACK 41 AUDIO
    TITLE "0:"
    INDEX 01 01:08:48
  TRACK 42 AUDIO
    TITLE "2:cjc039_2661"
    INDEX 01 01:10:22
  TRACK 43 AUDIO
    TITLE "0:"
    INDEX 01 01:13:20
  TRACK 44 AUDIO
    TITLE "3:cjc039_2662"
    INDEX 01 01:13:67
  TRACK 45 AUDIO
    TITLE "0:"
    INDEX 01 01:17:08
  TRACK 46 AUDIO
    TITLE "2:cjc039_2663"
    INDEX 01 01:18:58
  TRACK 47 AUDIO
    TITLE "0:"
    INDEX 01 01:20:02
  TRACK 48 AUDIO
    TITLE "3:cjc039_2664"
    INDEX 01 01:20:57
  TRACK 49 AUDIO
    TITLE "0:"
    INDEX 01 01:23:54
  TRACK 50 AUDIO
    TITLE "2:cjc039_2665"
    INDEX 01 01:25:23
  TRACK 51 AUDIO
    TITLE "0:"
    INDEX 01 01:26:36
  TRACK 52 AUDIO
    TITLE "3:cjc039_2666"
    INDEX 01 01:27:14
  TRACK 53 AUDIO
    TITLE "0:"
    INDEX 01 01:30:52
  TRACK 54 AUDIO
    TITLE "2:cjc039_2667"
    INDEX 01 01:32:25
  TRACK 55 AUDIO
    TITLE "0:"
    INDEX 01 01:33:52
  TRACK 56 AUDIO
    TITLE "3:cjc039_2668"
    INDEX 01 01:34:24
  TRACK 57 AUDIO
    TITLE "0:"
    INDEX 01 01:37:52
  TRACK 58 AUDIO
    TITLE "2:cjc039_2669"
    INDEX 01 01:39:21
  TRACK 59 AUDIO
    TITLE "0:"
    INDEX 01 01:40:13
  TRACK 60 AUDIO
    TITLE "3:cjc039_2670"
    INDEX 01 01:40:66
  TRACK 61 AUDIO
    TITLE "0:"
    INDEX 01 01:43:43
  TRACK 62 AUDIO
    TITLE "2:cjc039_2671"
    INDEX 01 01:45:22
  TRACK 63 AUDIO
    TITLE "0:"
    INDEX 01 01:46:57
  TRACK 64 AUDIO
    TITLE "3:cjc039_2672"
    INDEX 01 01:47:33
  TRACK 65 AUDIO
    TITLE "0:"
    INDEX 01 01:51:25
  TRACK 66 AUDIO
    TITLE "2:cjc039_2673"
    INDEX 01 01:53:00
  TRACK 67 AUDIO
    TITLE "0:"
    INDEX 01 01:54:03
  TRACK 68 AUDIO
    TITLE "3:cjc039_2674"
    INDEX 01 01:54:60
  TRACK 69 AUDIO
    TITLE "0:"
    INDEX 01 01:57:58
  TRACK 70 AUDIO
    TITLE "2:cjc039_2675"
    INDEX 01 01:59:36
  TRACK 71 AUDIO
    TITLE "0:"
    INDEX 01 02:00:35
  TRACK 72 AUDIO
    TITLE "3:cjc039_2676"
    INDEX 01 02:01:13
  TRACK 73 AUDIO
    TITLE "0:"
    INDEX 01 02:04:72
  TRACK 74 AUDIO
    TITLE "2:cjc039_2677"
    INDEX 01 02:06:52
  TRACK 75 AUDIO
    TITLE "0:"
    INDEX 01 02:07:59
  TRACK 76 AUDIO
    TITLE "3:cjc039_2678"
    INDEX 01 02:08:39
  TRACK 77 AUDIO
    TITLE "0:"
    INDEX 01 02:11:64
  TRACK 78 AUDIO
    TITLE "2:cjc039_2679"
    INDEX 01 02:13:36
  TRACK 79 AUDIO
    TITLE "0:"
    INDEX 01 02:14:69
  TRACK 80 AUDIO
    TITLE "3:cjc039_2680"
    INDEX 01 02:15:47
  TRACK 81 AUDIO
    TITLE "0:"
    INDEX 01 02:19:27
